<svg id="svg2" xmlns="http://www.w3.org/2000/svg" viewBox="0 0 200 200"><defs><style>.cls-1{fill:#b3b3b3;}.cls-2{fill:#a6120d;}.cls-3{fill:#dd1b16;}.cls-4{fill:#f2f2f2;}</style></defs><title>angular</title><polygon class="cls-1" points="99.774 25 29.2 49.836 40.352 142.3 99.849 175 159.652 141.857 170.8 49.397 99.774 25"/><polygon class="cls-2" points="163.76 54.741 99.609 32.864 99.609 167.187 153.371 137.433 163.76 54.741"/><polygon class="cls-3" points="37.119 55.135 46.676 137.828 99.608 167.187 99.608 32.861 37.119 55.135"/><path class="cls-4" d="M117.26771,104.3707,99.6091,112.62817H80.99715l-8.74907,21.88336-16.2734.30128L99.6091,37.74168Zm-1.707-4.15733L99.726,68.86572,86.73769,99.674H99.60825Z"/><polygon class="cls-1" points="99.608 37.742 99.725 68.866 114.463 99.698 99.642 99.698 99.608 112.609 120.103 112.628 129.682 134.816 145.253 135.105 99.608 37.742"/></svg>