<svg id="svg2" xmlns="http://www.w3.org/2000/svg" viewBox="0 0 200 200"><defs><style>.cls-1{fill:red;}.cls-2{fill:#eb1019;}.cls-3{fill:#fff;}.cls-4{fill:#bd101d;stroke:#bd101d;stroke-width:0.73938px;}</style></defs><title>couch</title><path class="cls-1" d="M178.68317,66.891V34.10112H21.55561V66.891H9.26189v67.18608h181.478V66.891Z"/><path class="cls-2" d="M5.9816,135.50452V63.60985H18.27619v-32.789H181.96259v32.789H194.0184v71.89466Zm5.12708-2.58134,177.12015.15542-.76754-62.90816H175.40114V37.37967H24.8333V70.17044H12.53871L11.33964,130.842l-.231,2.08122Z"/><path class="cls-3" d="M29.74332,30.54906V45.326l5.60029,7.57645,16.46224-5.58987L51.739,25Z"/><path class="cls-4" d="M33.153,105.92458l37.15031,8.39435,96.6297-9.003.02258,29.30383H33.07831Z"/><path class="cls-4" d="M143.71741,85.12711l-10.09789-4.18936-20.9989-14.33587L87.5322,74.23651l-54.40353-4.119V89.41806l34.4969,9.89731,98.572-8.75555V70.42745Z"/><path class="cls-3" d="M18.26229,57.31148,12.0438,63.88943V81.5273l8.77986,3.737V75.077l3.73613,2.92778v-6.96l8.56887-.00174L48.98833,94.92371l5.84861,1.595,7.942,32.91145,4.12077,1.70874,2.91476,12.041h22.982L81.74437,97.50244l31.221-20.27217L129.945,91.57743l4.1251-1.61583,1.56548,4.26577,30.56193-2.74284L163.545,84.71382,146.35,80.50883l-31.135-25.368L81.29027,68.00934,70.86592,54.2908,86.57016,38.32521h14.968l5.905,4.97514V38.32521h11.76408l-2.84182-6.60226L81.9076,26.26679,50.0971,46.63968Z"/><path d="M33.24762,173.51527a20.20363,20.20363,0,0,1-8.32663,1.48386c-10.24028,0-16.46137-6.45986-16.46137-16.27035,0-10.62318,7.36894-17.03616,17.22718-17.03616a18.55409,18.55409,0,0,1,7.84822,1.43524l-1.292,4.68948a15.67794,15.67794,0,0,0-6.3166-1.24422c-6.55624,0-11.29348,4.11556-11.29348,11.8674,0,7.08241,4.16331,11.62949,11.24572,11.62949a16.48321,16.48321,0,0,0,6.41211-1.19646l.95683,4.64173Z"/><path d="M58.65556,162.60557c0,8.5654-6.02921,12.39356-11.96378,12.39356-6.604,0-11.67638-4.54622-11.67638-12.01153,0-7.65633,5.02463-12.34668,12.05929-12.34668,6.93828.00087,11.58087,4.88223,11.58087,11.96464Zm-17.5632.23877c0,4.49846,2.201,7.896,5.79044,7.896,3.34975,0,5.69493-3.302,5.69493-7.99148,0-3.63628-1.62712-7.79959-5.6463-7.79959-4.16418,0-5.83906,4.01831-5.83906,7.8951Z"/><path d="M83.54949,167.48606c0,2.77583.09551,5.07239.19188,6.9869H78.57261l-.2874-3.54077h-.09551A8.42621,8.42621,0,0,1,70.72439,175c-4.25882,0-8.13561-2.53619-8.13561-10.14563V151.168h5.88595v12.681c0,3.87592,1.24422,6.36436,4.35433,6.36436a4.96021,4.96021,0,0,0,4.49846-3.15874,5.3337,5.3337,0,0,0,.33515-1.81814V151.16709h5.88595v16.319Z"/><path d="M106.17638,173.75491A16.87193,16.87193,0,0,1,99.57238,175c-7.27342,0-12.01066-4.68948-12.01066-11.916,0-6.9869,4.785-12.44219,12.96836-12.44219a14.67981,14.67981,0,0,1,5.69493,1.101l-1.05234,4.40209a10.3713,10.3713,0,0,0-4.4507-.90907c-4.49847,0-7.17792,3.302-7.13017,7.56082,0,4.78586,3.111,7.51307,7.13017,7.51307a11.51422,11.51422,0,0,0,4.64172-.90907l.8127,4.35433Z"/><path d="M109.56433,140.49615h5.9337v13.87742h.09638a7.85253,7.85253,0,0,1,2.91822-2.67945,7.99029,7.99029,0,0,1,4.02006-1.0532c3.97142,0,8.13561,2.6317,8.13561,10.097V174.4721h-5.88595V161.40823c0-3.39751-1.24508-5.93457-4.49933-5.93457a4.79953,4.79953,0,0,0-4.54535,3.302,4.95607,4.95607,0,0,0-.23964,1.77125V174.4721h-5.9337V140.49615Z"/><path d="M136.33979,142.64944a59.43756,59.43756,0,0,1,9.37983-.66943c6.02921,0,10.19252,1.24422,13.15937,3.73266,3.111,2.53619,5.02463,6.36436,5.02463,11.86827,0,5.74181-1.96227,10.04839-5.02463,12.82509-3.20562,2.91909-8.32663,4.40209-14.59548,4.40209a64.37218,64.37218,0,0,1-7.94372-.43066v-31.728Zm5.88595,27.32506a21.97455,21.97455,0,0,0,3.25424.14326c7.65632.04862,12.20254-4.16332,12.20254-12.34668.04863-7.13016-4.0678-11.1971-11.43674-11.1971a18.805,18.805,0,0,0-4.02.33515V169.9745Z"/><path d="M168.34652,142.64944a49.27852,49.27852,0,0,1,8.56539-.66943c4.3552,0,7.03553.52617,9.23656,2.05778a6.80317,6.80317,0,0,1,3.34889,6.02921c0,2.96685-1.86589,5.69493-5.35978,6.9869v.09551a8.13066,8.13066,0,0,1,6.50849,7.99148,8.37065,8.37065,0,0,1-3.11012,6.65175c-2.29742,2.00916-6.07783,3.0146-11.96378,3.0146a56.94262,56.94262,0,0,1-7.22567-.43066V142.64944Zm5.83819,12.72958h3.01547c4.0678,0,6.36435-1.91365,6.36435-4.64173,0-3.01547-2.29742-4.40209-6.02921-4.40209a16.0397,16.0397,0,0,0-3.34975.23877v8.805Zm0,14.83512a18.74948,18.74948,0,0,0,3.111.14326c3.78042,0,7.13016-1.43524,7.13016-5.40753,0-3.73266-3.25424-5.2634-7.322-5.2634h-2.91909v10.52767Z"/></svg>