<svg id="svg2" xmlns="http://www.w3.org/2000/svg" xmlns:xlink="http://www.w3.org/1999/xlink" viewBox="0 0 200 200"><defs><style>.cls-1{fill:url(#linear-gradient);}.cls-2{fill:url(#linear-gradient-2);}.cls-3{fill:url(#linear-gradient-3);}.cls-4{fill:url(#linear-gradient-4);}.cls-5{fill:url(#linear-gradient-5);}.cls-6{fill:url(#linear-gradient-6);}</style><linearGradient id="linear-gradient" x1="-746.08629" y1="1098.45296" x2="-744.93285" y2="1097.22243" gradientTransform="matrix(82.49072, 0, 0, -81.43026, 61631.31574, 89483.7207)" gradientUnits="userSpaceOnUse"><stop offset="0" stop-color="#f9a03c"/><stop offset="1" stop-color="#f7974e"/></linearGradient><linearGradient id="linear-gradient-2" x1="-737.28506" y1="1088.36672" x2="-735.07882" y2="1086.21496" gradientTransform="matrix(40.21053, 0, 0, -40.41217, 29654.15932, 44038.19456)" xlink:href="#linear-gradient"/><linearGradient id="linear-gradient-3" x1="-737.94085" y1="1088.68121" x2="-735.97812" y2="1086.43095" gradientTransform="matrix(41.04028, 0, 0, -39.93333, 30333.6247, 43560.15737)" xlink:href="#linear-gradient"/><linearGradient id="linear-gradient-4" x1="-751.06435" y1="1105.30433" x2="-750.62404" y2="1104.72311" gradientTransform="matrix(255.83467, 0, 0, -242.01601, 192189.18535, 267522.09776)" gradientUnits="userSpaceOnUse"><stop offset="0" stop-color="#f26d58"/><stop offset="1" stop-color="#f9a03c"/></linearGradient><linearGradient id="linear-gradient-5" x1="-749.48139" y1="1103.72707" x2="-748.83611" y2="1103.30306" gradientTransform="matrix(160.73065, 0, 0, -174.81334, 120559.57926, 192976.26911)" gradientUnits="userSpaceOnUse"><stop offset="0" stop-color="#b84e51"/><stop offset="1" stop-color="#f68e48"/></linearGradient><linearGradient id="linear-gradient-6" x1="-749.49701" y1="1099.33595" x2="-749.46671" y2="1098.56912" gradientTransform="matrix(176.76534, 0, 0, -92.62933, 132557.30245, 101961.88894)" xlink:href="#linear-gradient"/></defs><title>d3</title><path class="cls-1" d="M178.933,133.67014c.071-.68974.1221-1.38608.1617-2.08572.04786-.82835-49.85093-48.1728-49.85093-48.1728h-1.193s50.577,53.34914,50.88225,50.25852Z"/><path class="cls-2" d="M72.47233,117.24677c-.066.14521-.132.29041-.19966.43562-.071.15182-.14355.30362-.21616.45378-1.59069,3.31669,22.268,26.64074,24.18705,23.80754.08746-.12541.17491-.25741.26236-.38282.09736-.14851.19306-.29041.28877-.43893,1.53459-2.32993-23.64087-25.39-24.32236-23.87519Z"/><path class="cls-3" d="M106.187,150.04566a6.66636,6.66636,0,0,1-.98675,1.38938c-.07426.1485,23.29105,23.32076,23.29105,23.32076h2.10386c.00165,0-21.933-23.73-24.40816-24.71014Z"/><path class="cls-4" d="M179.12771,131.16364a45.72306,45.72306,0,0,1-45.61681,43.59215h-3.31009l-24.45107-24.08806a87.63889,87.63889,0,0,0,5.546-8.83954h22.2152a12.74367,12.74367,0,0,0,0-25.48734H120.36462A87.84155,87.84155,0,0,0,121.91406,100a87.43489,87.43489,0,0,0-1.59564-16.58838h8.16631l50.49942,49.75854c.05941-.66664.10726-1.33327.14356-2.00652ZM34.10438,25H20.82114V57.92759H34.10438a42.04971,42.04971,0,0,1,38.16829,59.75479l24.23326,23.87849A74.55683,74.55683,0,0,0,109.11429,100a75.0909,75.0909,0,0,0-75.0099-75Z"/><path class="cls-5" d="M133.51091,25H79.72119A88.39786,88.39786,0,0,1,111.1505,57.92759h22.3604a12.74284,12.74284,0,1,1,0,25.48568h-5.02454l50.49943,49.75854c.11881-1.34978.19306-2.70781.19306-4.08729A45.44007,45.44007,0,0,0,168.582,99.87624,45.63709,45.63709,0,0,0,133.51091,25Z"/><path class="cls-6" d="M130.20082,174.75579H80.10566a88.56159,88.56159,0,0,0,25.64409-24.08806l24.45107,24.08806ZM96.50593,141.56088,72.27432,117.68239a42.13323,42.13323,0,0,1-38.16994,24.39332H20.82114V175H34.10438a74.99273,74.99273,0,0,0,62.40154-33.43912Z"/></svg>