<svg id="svg2" xmlns="http://www.w3.org/2000/svg" viewBox="0 0 200 200"><defs><style>.cls-1{fill:#9d5025;}.cls-2{fill:#f58536;}</style></defs><title>ec2</title><g id="Layer_2" data-name="Layer 2"><g id="Layer_1-2" data-name="Layer 1-2"><g id="Layer_1-3" data-name="Layer 1-3"><polygon class="cls-1" points="44.114 53.034 37.925 56.129 37.925 143.871 44.114 146.966 69.417 102.367 44.114 53.034"/><polygon class="cls-2" points="58.677 143.689 44.114 146.966 44.114 53.034 58.677 56.311 58.677 143.689"/><polygon class="cls-1" points="51.032 49.575 58.677 45.752 95.085 104.005 58.677 154.248 51.032 150.425 51.032 49.575"/><polygon class="cls-2" points="76.699 149.15 58.677 154.248 58.677 45.752 76.699 50.85 76.699 149.15"/><polygon class="cls-1" points="67.233 41.383 76.699 36.65 130.4 110.376 76.699 163.35 67.233 158.617 67.233 41.383"/><polygon class="cls-2" points="100 154.794 76.699 163.35 76.699 36.65 100 45.206 100 154.794"/><polygon class="cls-1" points="87.621 31.189 100 25 157.888 104.187 100 175 87.621 168.811 87.621 31.189"/><polygon class="cls-2" points="162.075 143.871 100 175 100 25 162.075 56.129 162.075 143.871"/></g></g></g></svg>