<svg id="svg2" xmlns="http://www.w3.org/2000/svg" viewBox="0 0 200 200"><title>flask</title><g id="layer1"><path id="path2900" d="M66.17384,158.56765c-6.4056-5.0382-13.23861-9.86871-17.90784-16.67066a135.29463,135.29463,0,0,1-22.56115-40.47707c-3.12585-9.48988-4.19639-19.6642-8.226-28.78739-4.21539-6.62622.72237-13.86977,7.98055-15.976,3.2315-.62022,8.91348-3.66824,2.05475-1.48967-6.14907,4.51146-6.74416-4.09516-.43877-4.64015,4.30313-.572,5.88721-4.09467,4.41567-7.26589-4.61918-3.01223,11.20086-6.32272,3.24085-10.8174-8.29217-8.94633,11.599-10.66852,6.69152-.50823C40.24871,39.748,55.32248,30.50322,51.825,39.52536c3.5548,4.33274,13.31179.98614,13.06974,7.06458,5.17841.356,6.95565,4.71306,11.81681,5.04757,5.03811,2.27519,14.17139,4.06806,15.88577,9.74545-4.99837,3.9572-16.57283-8.174-17.12889,2.78,1.50995,16.18157,1.12526,32.8507,7.04563,48.26036,2.8003,9.33065,9.58892,16.67566,15.71978,23.94279,5.866,7.11724,13.81168,12.12746,21.91033,16.34632a90.31426,90.31426,0,0,0,22.50582,6.967c3.14033-2.402,8.68452-11.332,13.58344-7.56639.23243,4.231-9.72342,8.84469-.46839,8.37706,5.43446-1.63942,9.20379,4.20285,13.679-1.06688,4.123,4.88371,17.13674-3.12031,14.20317,6.862-3.96684,2.5593-9.75225,1.01281-13.72563,4.53354-6.551-3.272-11.7666,2.92776-19.01907,2.1437A139.75583,139.75583,0,0,1,126.48888,175c-13.3962-1.05843-27.07611-1.50459-39.82015-6.1687-7.17916-2.08612-14.18519-6.17395-20.49488-10.26367Zm11.31372,4.902c7.01022,3.03161,13.865,6.22674,21.54768,7.19052,12.18875,1.69527,24.77586,4.30278,37.00829,1.92424-5.53624-2.49988-11.25982.97391-16.7752-1.78756-6.615,1.42341-13.71371-.36261-20.43863-1.24193-7.64737-3.40641-15.9002-5.74875-23.06164-10.17034-8.94852-3.26847,4.62805,4.19161,7.04464,4.79581,5.594,3.17516-6.15157-1.62768-7.80742-2.94762-4.68528-2.62822-5.28237-2.079-.464.5901.9705.568,1.92953,1.16309,2.94625,1.64679Zm-13.33918-9.42682c6.79311,2.51617-.03-4.77706-3.14284-4.35327-1.37917-2.3927-5.26919-3.90423-2.52514-5.18953-4.936,1.71359-5.17069-6.51635-7.49085-5.34052-5.22188-1.64889-2.03236-7.49-8.25254-11.077-.56778-3.7797-6.18-7.058-7.97006-12.75911-.79059-2.919-6.3406-11.30122-2.93122-3.50024,2.90292,7.50974,8.01037,13.94092,12.26075,20.36475,3.30041,6.11625,7.19749,12.50843,13.20818,16.32389,2.02615,1.94363,3.98244,4.92177,6.84373,5.531ZM44.57885,132.55708C44.816,131.53121,45.82124,134.77743,44.57885,132.55708Zm27.70489,24.50205C73.788,156.38554,70.12065,156.2105,72.28374,157.05913Zm3.68761,1.34515C75.58943,156.54687,74.288,159.44288,75.97135,158.40428Zm4.6158,1.9254C82.78469,158.23732,77.20053,159.0104,80.58715,160.32968Zm7.91121,4.40931C89.83372,162.76521,84.22453,163.99411,88.49836,164.739Zm-15.19166-10.59C76.7199,151.9409,68.89816,154.11842,73.3067,154.14894Zm3.46271,1.72664C76.67262,154.70825,75.53533,156.39835,76.76942,155.87558Zm17.3063,10.80179c2.78207,1.75574,16.24624,3.84825,7.81522.71994C100.48023,167.69472,86.25777,163.37449,94.07572,166.67737ZM66.60138,145.27962C66.33089,144.1089,62.283,143.9871,66.60138,145.27962Zm8.05671,4.69553C76.75485,148.51273,70.3061,148.84717,74.65809,149.97515Zm6.77683,4.15517C84.44379,152.99593,76.55384,152.99058,81.43492,154.13031ZM63.323,141.7091c3.2646,2.50358,13.16588.32082,4.99957-1.49453-3.71685-1.98125-12.09381-3.33741-6.38391,1.19471l1.38433.29985ZM86.02489,155.565C87.38474,153.24821,80.32232,154.242,86.02489,155.565Zm-6.89842-5.48253c7.98273,2.25815-6.71275-5.04814-1.96957-.83094l1.05126.47571.91832.35528Zm13.83075,7.99381c7.5601.07213-6.82853-1.04223,0,0ZM60.41415,137.33509C60.11886,135.92687,58.5485,137.45312,60.41415,137.33509Zm45.33159,27.91477C105.94735,162.70652,103.27853,167.14242,105.74573,165.24986Zm-32.43-20.014C72.85846,143.89663,70.95353,145.18115,73.31573,145.23586Zm-12.18462-8.78433C65.47137,136.19091,55.189,134.53908,61.13112,136.45153Zm-14.4343-9.33017C46.15661,125.04075,41.97395,123.3813,46.69682,127.12136Zm37.89346,24.04831C83.79533,150.263,84.21635,151.368,84.59027,151.16967Zm23.58621,14.47393C108.10084,164.25818,106.8919,166.168,108.17649,165.6436ZM82.5029,149.01414C82.92746,147.2291,78.802,148.47368,82.5029,149.01414Zm-17.57134-11.136C68.16045,137.53244,59.759,135.6953,64.93156,137.87818Zm29.72356,18.46951C99.68691,154.35423,89.75087,155.37451,94.65511,156.34769ZM79.19418,145.85254c5.79915.7477-6.90011-3.94444-1.27238-.41984l1.27237.41988Zm20.15471,12.39262c5.41418-3.23678,3.62921,7.57949,9.18547.91375,5.4808-4.00177-4.73311,4.94744,2.02171.71351,4.88505-3.26725,12.10043,1.5488,16.65867,3.12019,3.278-.161,6.46467,2.83446,9.82512,1.01208,6.46891-1.74237-12.64979-2.58423-7.63813-5.67558-5.91909,1.72272-10.29238-2.05376-13.205-5.84515-6.63949-1.53316-14.31625-4.92764-17.62986-10.80336-1.351-2.20611,1.95174.3108-1.16626-3.2954-4.00081-3.55847-5.99856-7.59787-8.6843-11.92344-3.20846-1.71163-3.58224-6.74972-3.9066-.1689.02542-4.15325-3.87379-6.94869-4.8255-5.78666-.01707-3.99982,4.17288-1.99486,1.23978-4.95427-.63131-4.14566-2.71-8.46556-3.33478-13.14619-.97075-2.25624-.1367-7.08854-3.31319-1.98094-1.15728,5.398-.38412-6.63347,1.41557-2.666,2.36216-4.04846-.848-3.57232-.97955-3.01016,1.53873-3.41586.97391-8.261-.4015-6.41264.81992-3.62039,1.29532-13.32408-1.22716-11.60446,1.52907-3.78585,2.89982-17.32331-3.738-12.16192a28.20827,28.20827,0,0,0-9.55095,2.07172c6.90458,3.806-.6945,1.37447-3.50512.76956-.36622,3.52168-3.15009,1.99857-6.62805,2.0331,5.555.68728-2.70506,5.68143-5.89182,3.74147-4.1387,1.97805,3.57181,6.91561.083,8.44223.42876,2.3016-6.34051-.83116-5.80886,4.484-4.01788-1.69023-.55325,6.30509,1.45689,3.601,6.83367,1.8495,4.81074,6.06613,4.98476,10.07159-1.11345,2.334-5.49719-5.48611-.97633-5.12394-3.56661-5.79383-3.9453-2.09421-6.909.59736-.6895.19547,7.55981,3.82966,2.38294,5.62667,4.55458.70277,4.68415,4.68845,5.61135,7.21056,2.73755,2.85131,2.17726-3.14843,5.45283.27816-2.07282-3.05272-10.97927-8.60127-3.80838-6.82172-.03833-3.07244-1.29692-5.55.9-5.48987,2.17562-3.94005-2.27856,9.71453,2.62543,4.70706,1.3575-.59276,1.69374-3.945,4.13382.31657,3.54408,3.48649,1.28014,6.01288-3.71918,2.82049.89442,3.03422,6.68781,4.11853,5.59909,8.86346,1.15415,4.17327,2.76891,2.63618,4.17644,2.3949,1.10412,4.05481,1.73111,1.07322,1.78348-.85636,5.0555,1.08222,3.87134,4.07065,5.45317,6.15852,3.48367,1.57242-4.9863-10.65847.99455-3.67775,6.29244,5.68112,2.35985,8.05262-3.287,7.14247,3.574-.28873,4.72657,4.83181,9.197,4.6519,4.07665,1.93936,6.83674,9.38811-.19012,6.28735-2.4372-2.19748-11.06188-4.90836-4.0175-.72853,6.50617,3.0129,11.67359,4.81532,17.94854,8.59727,4.49077,3.2059,6.43094,6.87782,8.133,7.60469-3.77431,1.80274-11.37428-1.43954-5.73085-2.43318-3.52-.64119-7.479-2.42124-4.10748,1.96446,2.86691,2.39368,10.157,2.1401,11.46392,2.41132-1.10774,2.44085-3.00892,2.635.04539,2.82427-3.40743,1.81587,1.09263,2.097,1.40839,3.13463ZM92.381,138.56811c-2.07311-2.168-2.60913-6.2289-.36814-2.69538,1.14921.4615,3.68142,6.6361.36818,2.69538Zm22.69186,14.41428C116.36591,152.89865,115.11039,153.96475,115.07283,152.98239ZM89.1076,133.25216C89.02809,129.97437,89.85748,135.78036,89.1076,133.25216Zm-2.25528-3.03438C84.24473,125.17942,90.13966,131.64462,86.85233,130.21778ZM59.52192,111.35436C61.05386,110.94581,60.27561,113.97443,59.52192,111.35436Zm21.75151,11.79005C82.21425,119.61138,82.379,126.10887,81.27343,123.14441ZM65.90665,112.45924C64.82335,110.50967,68.17256,114.28766,65.90665,112.45924Zm13.188,4.22762c-2.47042-5.53478,1.749-3.02325.54655.9071l-.54655-.9071ZM56.35186,101.51975c-1.10447-1.81582-2.93148-7.14371-2.34329-8.77019.53211,2.64889,5.633,11.3995,2.50215,3.62488-3.45989-6.51718,4.1358,2.11541,4.91712,3.74094.36384,1.61707-2.13465-.44179-.44174,3.34984C57.8988,99.14834,59.16356,105.84976,56.35186,101.51975Zm-7.02878-4.8433C49.61242,92.45444,50.93213,99.57157,49.32308,96.67645Zm3.16161,1.08834C53.99339,94.57809,55.04284,102.20734,52.48469,97.76479Zm-7.60534-5.88331c-2.61683-2.60035-4.51052-4.99741.12243-1.61387,1.78517.06967-3.96621-5.45105.42992-1.75313C50.05438,89.35735,47.71441,96.09394,44.87935,91.88148Zm3.995-.10444C50.394,90.27111,49.68111,93.25947,48.87434,91.777Zm2.45818.788C49.02863,88.24668,54.12866,94.37554,51.33252,92.56509Zm-4.88669-4.67c-7.60734-6.77,9.55911,3.54,1.24282,1.25513l-1.24287-1.25507Zm21.79618,12.664c-3.292-1.97385-.87239-13.89578.25025-5.742,3.20031-1.03527-.1767,4.211,2.2103,4.16243C70.32637,102.28961,69.25849,103.47964,68.242,100.55915Zm8.0619,4.76476C76.62677,101.731,76.98341,107.78036,76.30391,105.32392Zm-1.40034-1.3836C75.266,102.4054,74.941,105.74782,74.90357,103.94032ZM47.93813,85.67046c-4.88721-6.74287,14.20352,6.82069,3.13018,1.71024C49.91123,87.07808,48.519,86.97,47.93813,85.67046Zm15.52452,8.231c-.46249-5.67761,1.03283.94111-.00017,0Zm11.78671,7.56108C76.16151,98.2285,75.31736,103.602,75.24936,101.46259ZM48.68678,83.097c2.90466-.62127,12.03734,5.10126,3.65062,1.63462C51.40554,83.70005,49.419,84.16876,48.68678,83.097ZM73.63,95.52883c.31047-5.80551,1.73407-3.46775.01073.831l-.01064-.831H73.63ZM50.849,81.07689c1.18349-1.736-3.14168-7.84891.62347-2.19272,1.62689,1.29269,4.71046,2.16559,1.988,2.70942C57.74217,85.37083,52.41608,82.61714,50.849,81.07689ZM72.39626,93.71543C73.21388,87.10206,73.11729,97.59,72.39626,93.71543Zm-24.019-18.74679C49.28121,74.5823,48.85463,76.17313,48.37722,74.96864Zm5.62045,3.34528C55.44413,75.27876,56.666,81.699,53.99766,78.31391Zm15.85389,8.81932C69.83624,85.96756,70.15065,88.82883,69.85155,87.13323Zm-.91836-2.03314C66.73273,79.67138,70.98,87.97433,68.93319,85.10009Zm-1.3511-3.55927c-.36936-2.2432,1.25533,2.81819-.00007,0Zm2.19885-3.57435c-1.51-2.661,1.90682-11.72628,2.28809-6.10405-1.59374,4.38073-.45976,6.83141.65205.95561,2.05318-4.6243-.44351,9.12523-2.94018,5.14847ZM72.0406,64.48483C72.69884,63.67653,72.18669,65.45864,72.0406,64.48483ZM68.267,138.84288C67.37195,138.06176,68.3794,139.33992,68.267,138.84288Zm7.77384,3.93248c4.32421,1.10951,4.3021-.6728.39391-1.2023-2.10212-1.95554-8.735-4.02975-2.79824-.24266.39318.996,1.6356.97277,2.40433,1.44494ZM60.68779,132.57792c2.38223,1.77645,8.97319,5.03473,3.39374.67614,1.88115-2.18556-3.60058-3.34891-1.78217-4.81088-4.6252-2.83022-3.64863-2.57846-.40824-2.48941-5.55866-2.48459.80236-2.29874.50285-3.57185-2.14338-.42333-10.64611-3.77942-5.644.27569-5.085-2.59269-1.21177.96582-2.74871.5896-5.19973-1.41776,4.63066,3.96027-.82583,2.62521,2.98308,2.364,8.02944,6.05524,1.26119,2.5017-.89177,1.28366,4.84343,3.2294,6.25117,4.20381Zm8.1305,4.6709C78.70414,140.43448,63.97156,133.35685,68.81829,137.24882Zm41.62048,25.21373C110.56628,160.50131,109.08764,164.13559,110.43877,162.46255Zm4.2778,1.80039c2.28083-2.21008.09324,3.52044,3.77934-.54105.03985-2.90753-.11351-4.62489-4.23593-1.09295-1.13642.63023-1.64376,3.30991.45659,1.634ZM46.81117,121.61708C46.11068,118.86351,41.90117,118.87778,46.81117,121.61708Zm4.5679,2.99329C49.68281,121.79788,45.32681,122.06415,51.37906,124.61037Zm25.987,15.67217c2.53718,2.25358,11.65287,1.65354,3.08158.27732C79.17813,138.68288,72.38663,139.13462,77.366,140.28255Zm35.72346,22.06223C116.99441,159.06809,109.306,163.80656,113.08948,162.34477Zm8.12136,5.581C121.23521,166.87419,119.52768,168.3861,121.21085,167.92572Zm.0125-1.47213c4.32423-4.58165-4.19.271,0,0ZM35.57615,112.21131c-3.68556-5.2586-2.291-7.6223-5.8452-11.916-.67283-3.28344-6.09724-10.73424-2.80562-2.84071C29.94027,102.07116,30.83617,109.21893,35.57615,112.21131ZM119.867,164.99714C127.82252,159.85509,116.60139,162.75725,119.867,164.99714Zm6.073,2.379C129.92386,163.95561,123.41992,166.66073,125.94,167.37616Zm-80.48278-51.5716C46.59735,114.10832,42.51253,115.58759,45.45718,115.80456Zm79.21476,49.94727c3.85736-2.48709-.88873-2.10525-.69915.22872l.69916-.22872ZM72.32233,132.75569C72.18973,131.07629,70.28535,132.89825,72.32233,132.75569Zm3.23519,1.86153C74.52935,132.53853,73.9767,134.94375,75.55752,134.61722Zm55.30395,32.81534c4.94176-3.56495-2.99563-.68253-1.03731.67542l1.03731-.67542Zm-1.89233-.91462C132.99483,163.14454,124.719,168.01289,128.96913,166.51794Zm9.66846,6.43867C141.34049,171.1462,135.35383,172.371,138.63759,172.9566Zm-90.7015-58.37521c3.62313.81177,14.4789,8.92279,8.07445.561-3.28009-.971-1.31293-8.9889-4.65866-7.56983,2.24565,3.75149,1.84761,5.34826-2.86725,2.98315-5.92584-2.89266-3.33015,1.43352-2.172,2.62583-1.5782.35863,2.08754,1.36975,1.6235,1.39991Zm-16.50685-13.0362c.64864-2.68276-5.97246-14.759-3.12658-6.051C29.32993,97.31823,29.22548,100.77526,31.42923,101.54518ZM61.7264,120.224C59.86074,118.66379,61.63774,120.00322,61.7264,120.224Zm4.59426,1.06917C66.31828,118.45134,61.24238,120.13917,66.32066,121.29321Zm39.81291,25.09839c-.75935-1.94167-3.00152-.045.00007,0Zm1.91186,1.39657C107.76319,146.70143,106.94241,147.99793,108.04544,147.78816ZM123.826,157.728C125.34372,156.60669,121.932,157.58476,123.826,157.728Zm-84.15145-54.0778C44.01566,101.96945,35.0233,102.45169,39.67452,103.65015Zm62.95421,39.66154C102.58044,140.50131,99.86125,144.00891,102.62873,143.31169ZM37.95934,99.65329C40.74788,98.71136,35.37971,99.03289,37.95934,99.65329Zm8.09385,3.9207C46.00262,102.65026,45.197,103.92361,46.0532,103.574Zm98.72105,60.53707c3.58578-.727,11.75706,1.82512,13.07778-.95074-4.35451-.10572-15.06555-3.07219-15.57233.70791l.95323.15016,1.54132.09267h0ZM48.62563,104.22225C48.688,101.37444,46.40488,104.11589,48.62563,104.22225ZM27.34483,89.4602C26.37839,84.03433,23.66908,88.639,27.34483,89.4602Zm5.0747,1.27556C32.48187,88.9935,27.77464,89.16807,32.41953,90.73576Zm2.9,1.42431C34.48127,91.481,34.6634,93.01789,35.31957,92.16007ZM53.567,103.86584C54.4261,103.07666,51.53326,103.28129,53.567,103.86584ZM33.388,88.9478C32.8975,84.84968,27.51038,88.33378,33.388,88.9478ZM22.98406,82.19714C22.83609,80.30579,21.97019,82.91061,22.98406,82.19714Zm1.54755-1.16873C24.27913,78.78575,23.20293,81.31375,24.53161,81.02841Zm8.55061,5.10395c3.61567-1.42028-6.58594-2.93779-.73879-.26834ZM147.51873,156.8179C149.83294,154.69617,144.57751,156.1619,147.51873,156.8179Zm13.82472,7.16619C162.27087,161.2409,159.00848,164.34524,161.34345,163.98409ZM33.95607,81.6507C34.337,78.99709,31.08959,82.17761,33.95607,81.6507ZM21.79063,73.5c-.65353-3.7464-.56413-10.32241,5.68686-8.10006-8.344,1.65662,5.775,10.37081,3.992,3.49065,3.50848.17179,6.86339-2.07352,5.02218,1.33386,6.91273-.76347,11.70523-6.75778,18.38246-5.91781,5.20124-.6883,10.8881-1.21032,16.49311-3.304,4.60838-.332,9.04456-5.29361,6.51859-8.23446-6.2845-.53174-12.863.25456-19.80915,1.63521-7.69717,1.60013-14.68879,4.64027-22.45506,5.94524-7.56992,1.01687,1.52262,2.80174-.64571,3.19938-3.95009,1.37057,4.71079,2.2948-.5121,3.73964-3.22556-.6133-6.583-1.72158-5.20515-5.12073-7.25132.941-13.62314,3.95049-7.89416,11.32964l.42609.00325V73.5Zm17.473-8.89894c1.70018-6.2633,9.10867,5.15394,2.78668.83193A3.953,3.953,0,0,0,39.26367,64.601Zm.33077-3.03662C42.04828,59.73633,40.89888,62.5893,39.59444,61.5644Zm3.1158.04945c.22152-2.88206,7.13262,1.52575,1.13956,1.03751l-1.13956-1.03751Zm4.26214-1.71367C48.52885,58.08153,47.41977,61.51785,46.97238,59.90018Zm1.09035-.73013c2.5917-3.114,14.677-1.98743,5.831-.30364C51.52264,57.08134,49.70513,59.91895,48.06272,59.17005Zm15.77161-2.43117C63.44009,48.23276,71.66979,59.76168,63.83433,56.73888Zm4.4751-.02449c1.63611-4.28719,6.34916-1.72034.75712-.86151C69.188,56.30911,68.90258,58.06617,68.30944,56.7144ZM32.1914,79.45016c4.88852-2.99354-5.18971-2.59711,0,0ZM35.806,80.45457C37.5199,78.63209,32.08176,79.71536,35.806,80.45457ZM25.1558,72.896C27.9491,70.75029,21.85033,72.08022,25.1558,72.896ZM169.50363,163.2C169.58438,160.71056,167.36863,164.32189,169.50363,163.2Zm-14.66755-10.00951C155.25316,150.32433,152.95118,153.44041,154.83608,153.19054ZM173.537,164.16531c3.90546.01319,11.83323-1.21286,3.33568-1.209-1.33346.20795-7.76979.16336-3.33566,1.20894ZM38.98538,78.69777c3.1607-.21709,4.94511-3.48649-.61128-3.29856-8.61144-.89153,7.59773,2.9486-1.10471,1.85057C36.10005,78.02416,38.91745,78.912,38.98538,78.69777ZM41.769,80.1067C41.439,78.07737,40.79165,81.18476,41.769,80.1067Zm3.302-8.80492C46.44263,69.60056,43.1731,70.847,45.07105,71.30179ZM34.55948,53.73115c5.6409-1.919,13.35474-4.07536,16.01818.94487-2.71063-3.26245-1.0939-6.47415,1.46629-1.70418,3.62015,4.82619,5.43246-2.19508,3.07787-3.81388,2.68325,3.334,5.73516,4.90941,1.79656.21072,4.28-5.14836-8.56989.67417-11.49057.61554C44.02256,50.615,30.91972,53.32581,34.55948,53.73115Zm3.30589-6.33136c3.21706-2.42812,11.12629,1.44433,6.051-2.41312C43.42013,44.54836,32.80139,47.91183,37.86536,47.39979Zm11.72841.48421c3.76512.09608-1.62406-5.05807,2.86255-2.72256-.73685-2.40719-5.22368-2.85785-7.41723-3.81959C43.7984,43.5427,47.56446,47.91358,49.59377,47.884ZM39.9219,37.23754C41.22444,35.47179,37.6391,38.13273,39.9219,37.23754Zm4.79357,1.14733c6.0675-.80477-1.54663-2.613-1.22263-.06467l1.22263.06467ZM35.7649,31.38127c-4.2722-5.577,8.03445.93747,3.69389-4.90181C35.8055,23.57033,32.2949,29.7532,35.7649,31.38127ZM90.59176,60.91259c1.95946-3.47361-8.08984-4.68223-1.32022-1.23109C89.89481,59.88977,89.75375,61.15284,90.59176,60.91259Z"/></g></svg>