<svg id="svg2" xmlns="http://www.w3.org/2000/svg" xmlns:xlink="http://www.w3.org/1999/xlink" viewBox="0 0 200 200"><defs><style>.cls-1{fill:#414042;}.cls-2{fill:#6d6e71;}.cls-3{fill:url(#linear-gradient);}.cls-4{fill:url(#linear-gradient-2);}.cls-5{fill:#939598;}.cls-6{fill:#58595b;}</style><linearGradient id="linear-gradient" x1="43.0299" y1="-391.45552" x2="156.97008" y2="-391.45552" gradientTransform="matrix(1, 0, 0, -1, 0, -253.35713)" gradientUnits="userSpaceOnUse"><stop offset="0.05221" stop-color="#f78d26"/><stop offset="0.2056" stop-color="#f68826"/><stop offset="0.4323" stop-color="#f37a25"/><stop offset="0.4766" stop-color="#f37625"/><stop offset="0.6159" stop-color="#e76623"/><stop offset="0.8356" stop-color="#dc5221"/><stop offset="0.9873" stop-color="#d84b21"/></linearGradient><linearGradient id="linear-gradient-2" x1="43.0299" y1="-310.39576" x2="156.97008" y2="-310.39576" xlink:href="#linear-gradient"/></defs><title>ipython</title><path class="cls-1" d="M40.48626,104.60095c0,4.75061-.37406,6.32166-1.34663,7.4813a5.98136,5.98136,0,0,1-3.92768,1.5337l.37406,2.84293a9.32673,9.32673,0,0,0,6.17207-2.24439c1.7581-1.79553,2.394-4.30175,2.394-8.192V87.99259H40.52367v16.60836Z"/><path class="cls-1" d="M67.49376,102.43135c0,2.05736.03741,3.85289.14962,5.42394h-3.217l-.187-3.25435h-.07481a7.45059,7.45059,0,0,1-6.58355,3.70321c-3.10474,0-6.84539-1.72074-6.84539-8.71573V87.955h3.62843V98.95244c0,3.77809,1.1596,6.32166,4.45137,6.32166a5.16766,5.16766,0,0,0,4.75062-3.29179,5.701,5.701,0,0,0,.33666-1.83288V87.95488h3.62843v14.47648Z"/><path class="cls-1" d="M74.30174,94.46375c0-2.54366-.07481-4.601-.14962-6.47134h3.25436l.14962,3.404h.07481a7.8107,7.8107,0,0,1,7.06983-3.85289c4.788,0,8.41646,4.07727,8.41646,10.09975,0,7.14468-4.33916,10.66085-9.05237,10.66085a7.06352,7.06352,0,0,1-6.13466-3.10476h-.07481v10.81044h-3.591V94.46375Zm3.55362,5.3118a9.65628,9.65628,0,0,0,.14962,1.49626,5.59512,5.59512,0,0,0,5.42394,4.227c3.81546,0,6.02245-3.10476,6.02245-7.66833,0-4.00248-2.09477-7.4065-5.91023-7.4065a5.76235,5.76235,0,0,0-5.46135,4.48878,6.24971,6.24971,0,0,0-.26184,1.49626v3.36658Z"/><path class="cls-1" d="M99.51371,87.9925l4.33915,11.7456c.44888,1.30923.93516,2.88028,1.27182,4.07727h.07482c.37406-1.197.78554-2.69325,1.27182-4.15216L110.399,87.99241h3.81547l-5.42394,14.177c-2.581,6.808-4.33916,10.32423-6.808,12.45638a9.837,9.837,0,0,1-4.45137,2.35663l-.89775-3.03a10.15063,10.15063,0,0,0,3.17955-1.75809,11.03275,11.03275,0,0,0,3.02993-4.03992,3.35908,3.35908,0,0,0,.29925-.86037,2.73685,2.73685,0,0,0-.26185-.93516L95.51121,88.02976h4.0025Z"/><path class="cls-1" d="M123.75312,82.26929V87.9925h5.16209v2.768h-5.16209v10.73565c0,2.46887.71072,3.85289,2.69327,3.85289a6.96442,6.96442,0,0,0,2.09477-.26183l.14962,2.69325a8.65117,8.65117,0,0,1-3.217.4863,4.90645,4.90645,0,0,1-3.89027-1.5337c-1.01-1.08475-1.384-2.84293-1.384-5.16211V90.7231h-3.06734v-2.768h3.06734V83.20445Z"/><path class="cls-1" d="M135.611,98.57847c.07482,4.90029,3.217,6.88276,6.808,6.88276a13.29825,13.29825,0,0,0,5.49876-1.01l.59851,2.581a16.30585,16.30585,0,0,1-6.621,1.23443c-6.13466,0-9.7631-4.03992-9.7631-10.025s3.51621-10.73565,9.31422-10.73565c6.47132,0,8.22943,5.72321,8.22943,9.35162a14.85116,14.85116,0,0,1-.11221,1.68329H135.611Zm10.586-2.581c.03741-2.28183-.93516-5.8728-5.01247-5.8728-3.66583,0-5.27432,3.36658-5.53616,5.8728Z"/><path class="cls-1" d="M154.98755,94.16457c0-2.35663-.03741-4.33919-.14962-6.20951h3.17955l.11221,3.89024h.14962a5.94813,5.94813,0,0,1,5.49876-4.33919,3.9622,3.9622,0,0,1,1.01.11224v3.404a6.04156,6.04156,0,0,0-1.23441-.11224c-2.54364,0-4.33916,1.94512-4.86284,4.63837a11.26227,11.26227,0,0,0-.14962,1.68329v10.58606h-3.55363Z"/><circle class="cls-2" cx="141.07232" cy="33.00495" r="8.00497"/><path class="cls-3" d="M100,139.91264c-24.50125,0-45.86037-8.79053-56.97009-21.808a60.57632,60.57632,0,0,0,113.94018,0C145.86036,131.12212,124.50125,139.91264,100,139.91264Z"/><path class="cls-4" d="M100,55.22438c24.50125,0,45.86037,8.79053,56.97009,21.808a60.57632,60.57632,0,0,0-113.94019,0C54.177,64.05234,75.49874,55.22438,100,55.22438Z"/><circle class="cls-5" cx="59.03988" cy="165.34912" r="9.65087"/><circle class="cls-6" cx="49.53864" cy="44.00243" r="5.87281"/></svg>