<?xml version="1.0" encoding="utf-8"?>
<!-- Generator: Adobe Illustrator 19.2.0, SVG Export Plug-In . SVG Version: 6.00 Build 0)  -->
<!DOCTYPE svg PUBLIC "-//W3C//DTD SVG 1.1//EN" "http://www.w3.org/Graphics/SVG/1.1/DTD/svg11.dtd">
<svg version="1.1" id="Capa_1" xmlns="http://www.w3.org/2000/svg" xmlns:xlink="http://www.w3.org/1999/xlink" x="0px" y="0px"
	 viewBox="0 0 24 24" style="enable-background:new 0 0 24 24;" xml:space="preserve">
<style type="text/css">
	.st0{fill:none;}
</style>
<path id="LinkedIn" d="M20.9,13.4V20h-3.8v-6.1c0-1.5-0.6-2.6-1.9-2.6c-1.1,0-1.7,0.7-2,1.4c-0.1,0.2-0.1,0.6-0.1,0.9V20H9.3
	c0,0,0.1-10.4,0-11.5h3.8v1.6c0,0,0,0,0,0h0v0c0.5-0.8,1.4-1.9,3.4-1.9C19,8.3,20.9,9.9,20.9,13.4z M5.3,3C4,3,3.1,3.9,3.1,5
	c0,1.1,0.8,2,2.1,2h0c1.3,0,2.2-0.9,2.2-2C7.4,3.9,6.6,3,5.3,3z M3.3,20h3.8V8.5H3.3V20z"/>
<path class="st0" d="M0,0h24v24H0V0z"/>
</svg>
