<svg fill="#ffffff" xmlns="http://www.w3.org/2000/svg" viewBox="0 0 49.83617 24.13501"><title>Asset 1</title><g id="Layer_2" data-name="Layer 2"><g id="Layer_1-2" data-name="Layer 1"><g id="Layer_5" data-name="Layer 5"><path d="M49.83286,12.23361a11.82238,11.82238,0,0,0-16.5-11.2c-2.4,1.1-4,3-5.7,4.9-3.4,3.7-6.8,7.4-10.3,11.1a7.52773,7.52773,0,0,1-4.9,2.7,7.64177,7.64177,0,0,1-8.3-8,7.16745,7.16745,0,0,1,4.7-6.8,6.76226,6.76226,0,0,1,8,1.5c.7.7,1.4,1.4,2,2.1.4.5.7.5,1.2,0,2.7-3,2.9-1.9.1-4.8a11.79326,11.79326,0,0,0-2.1-1.8,9.84826,9.84826,0,0,0-6.6-1.9,12.079,12.079,0,0,0-9.8,18.1,12.18136,12.18136,0,0,0,12.2,5.7c3.1-.6,5.3-2.4,7.4-4.7,3.6-3.8,7.1-7.7,10.7-11.5a9.22984,9.22984,0,0,1,4-3,7.24948,7.24948,0,0,1,7.3,1.6,7.622,7.622,0,0,1,2.4,7.4,7.254,7.254,0,0,1-5.1,5.7,6.51744,6.51744,0,0,1-7.4-1.8c-.6-.6-1.3-1.3-1.8-1.9s-.8-.6-1.4,0c-2.5,2.9-2.8,1.7,0,4.7a11.23987,11.23987,0,0,0,7.9,3.8A12.01184,12.01184,0,0,0,49.83286,12.23361Z"/></g></g></g></svg>