<svg id="svg2" xmlns="http://www.w3.org/2000/svg" viewBox="0 0 200 200"><defs><style>.cls-1{fill:#fff;}.cls-1,.cls-2,.cls-3,.cls-4,.cls-5,.cls-6{fill-opacity:0.8;stroke:#777;stroke-width:1.19048px;}.cls-2{fill:#f60;}.cls-3{fill:#fc0;}.cls-4{fill:#7f7;}.cls-5{fill:#cf3;}.cls-6{fill:#04f;}</style></defs><title>matplotlib</title><path class="cls-1" d="M98.80952,25a75,75,0,1,0,2.381,0Zm0,16.66667a58.33333,58.33333,0,1,0,2.381,0Zm0,16.66667a41.66667,41.66667,0,1,0,2.381,0Zm0,16.66667a25,25,0,1,0,2.381,0Zm0,16.66667a8.33333,8.33333,0,1,0,2.381,0ZM175,100H25M153.57143,46.42857,46.42857,153.57143m107.14286,0L46.42857,46.42857M100,25V175"/><path class="cls-2" d="M83.33333,33.33333,59.52381,45.2381,140.47619,154.7619,152.381,142.85714,100,100Z"/><path class="cls-3" d="M44.04762,83.33333v33.33333L100,100Z"/><path class="cls-4" d="M100,100l7.14286,41.66667H92.85714Z"/><path class="cls-5" d="M100,100l15.47619-47.619,10.71429,5.95238Z"/><path class="cls-6" d="M100,100l16.66667-7.14286,1.19048,4.7619L69.04762,115.47619l3.57143,4.7619Z"/></svg>