<svg id="svg2" xmlns="http://www.w3.org/2000/svg" xmlns:xlink="http://www.w3.org/1999/xlink" viewBox="0 0 200 200"><defs><style>.cls-1{fill:url(#linear-gradient);}.cls-2{fill:url(#linear-gradient-2);}</style><linearGradient id="linear-gradient" x1="471.53483" y1="-604.38535" x2="617.03349" y2="-729.56738" gradientTransform="matrix(0.56254, 0, 0, -0.56797, -243.07811, -314.00274)" gradientUnits="userSpaceOnUse"><stop offset="0" stop-color="#5a9fd4"/><stop offset="1" stop-color="#306998"/></linearGradient><linearGradient id="linear-gradient-2" x1="673.28422" y1="-805.33278" x2="621.32673" y2="-731.82189" gradientTransform="matrix(0.56254, 0, 0, -0.56797, -243.07811, -314.00274)" gradientUnits="userSpaceOnUse"><stop offset="0" stop-color="#ffd43b"/><stop offset="1" stop-color="#ffe873"/></linearGradient></defs><title>python</title><g id="g2303"><path id="path1948" class="cls-1" d="M99.11661,25.00123A102.1802,102.1802,0,0,0,82.0164,26.461c-15.14323,2.67531-17.89265,8.275-17.89265,18.60169V58.70114H99.90905V63.2473H50.69383c-10.40021,0-19.50693,6.25113-22.35539,18.1429-3.28567,13.63074-3.43141,22.13654,0,36.36922,2.54375,10.59425,8.61856,18.1429,19.01877,18.1429H59.661V119.55285c0-11.81152,10.21961-22.23026,22.35539-22.23027H117.76A18.02911,18.02911,0,0,0,135.65266,79.138V45.06269c0-9.698-8.18138-16.98313-17.89265-18.60169A111.61525,111.61525,0,0,0,99.11661,25.00123ZM79.76418,35.97038a6.82,6.82,0,1,1-6.715,6.84008A6.78975,6.78975,0,0,1,79.76418,35.97038Z"/><path id="path1950" class="cls-2" d="M140.11539,63.2473V79.138c0,12.31983-10.44484,22.68905-22.35539,22.68905H82.0164c-9.79077,0-17.89265,8.37958-17.89265,18.18461v34.07529c0,9.698,8.43311,15.40229,17.89265,18.18461,11.32762,3.33076,22.19021,3.93271,35.7436,0,9.00909-2.60843,17.89266-7.8579,17.89265-18.18461V140.44847H99.90905v-4.54615h53.63627c10.40021,0,14.27575-7.25437,17.89263-18.1429,3.73613-11.20958,3.57716-21.9894,0-36.36922-2.57023-10.35347-7.4792-18.1429-17.89263-18.1429Zm-20.10317,86.29348a6.82,6.82,0,1,1-6.715,6.79837A6.75371,6.75371,0,0,1,120.01222,149.54077Z"/></g></svg>