<svg id="svg2" xmlns="http://www.w3.org/2000/svg" xmlns:xlink="http://www.w3.org/1999/xlink" viewBox="0 0 200 200"><defs><style>.cls-1{fill:url(#linear-gradient);}.cls-2{fill:url(#linear-gradient-2);}</style><linearGradient id="linear-gradient" x1="-1412.20835" y1="1107.27955" x2="-1411.9386" y2="1107.00979" gradientTransform="matrix(721.09399, 0, 0, -482.93701, 1018337.70333, 534771.27582)" gradientUnits="userSpaceOnUse"><stop offset="0" stop-color="#cbced0"/><stop offset="1" stop-color="#84838b"/></linearGradient><linearGradient id="linear-gradient-2" x1="-1411.17631" y1="1107.15592" x2="-1410.90658" y2="1106.88619" gradientTransform="matrix(398, 0, 0, -406.12402, 561724.30244, 449714.95494)" gradientUnits="userSpaceOnUse"><stop offset="0" stop-color="#276dc3"/><stop offset="1" stop-color="#165caa"/></linearGradient></defs><title>r</title><path class="cls-1" d="M100,155.27423c-53.71451,0-97.259-29.16285-97.259-65.137C2.741,54.16284,46.28549,25,100,25c53.71478,0,97.259,29.16284,97.259,65.13725C197.259,126.11139,153.71478,155.27423,100,155.27423ZM114.88719,50.4664c-40.82782,0-73.9253,19.937-73.9253,44.53047s33.09748,44.53047,73.9253,44.53047c40.82755,0,70.95774-13.63041,70.95774-44.53047C185.84493,64.10652,155.71474,50.4664,114.88719,50.4664Z"/><path class="cls-2" d="M150.86132,125.888a73.25374,73.25374,0,0,1,9.30652,3.5068,18.003,18.003,0,0,1,4.7207,3.37193,12.74671,12.74671,0,0,1,2.158,3.10217l23.19885,39.11434L152.7496,175l-17.534-32.92673s-3.59043-6.169-5.79971-7.95775c-1.843-1.492-2.62875-2.02316-4.45094-2.02316H116.056l.007,42.88389-33.17975.014V65.44639h66.62926s30.34733.54733,30.34733,29.41992S150.86132,125.888,150.86132,125.888ZM136.42948,89.20795l-20.0867-.01295-.01,18.62652,20.09668-.00647s9.30652-.02887,9.30652-9.47511C145.736,88.70378,136.42948,89.20795,136.42948,89.20795Z"/></svg>