<svg id="svg2" xmlns="http://www.w3.org/2000/svg" viewBox="0 0 200 200"><defs><style>.cls-1{fill:#5294cf;}.cls-2{fill:#205b99;}.cls-3{fill:#2e73b8;}</style></defs><title>redshift</title><g id="Layer_2" data-name="Layer 2"><g id="Layer_1-2" data-name="Layer 1-2"><g id="Layer_1-3" data-name="Layer 1-3"><polygon class="cls-1" points="156.818 46.136 168.182 51.591 168.182 147.955 156.818 153.636 138.864 100 156.818 46.136"/><polygon class="cls-2" points="43.182 46.136 31.818 51.591 31.818 147.955 43.182 153.636 71.591 100 43.182 46.136"/><polygon class="cls-2" points="100 139.773 156.818 153.636 156.818 46.136 100 60 100 139.773"/><polygon class="cls-1" points="100 139.773 43.182 153.636 43.182 46.136 100 60 100 139.773"/><polygon class="cls-1" points="113.636 175 135.455 164.091 135.455 35.909 113.636 25 92.045 96.364 113.636 175"/><polygon class="cls-2" points="86.364 175 64.545 164.091 64.545 35.909 86.364 25 105.682 100 86.364 175"/><rect class="cls-3" x="86.36364" y="25" width="27.27273" height="150"/></g></g></g></svg>