<svg id="svg2" xmlns="http://www.w3.org/2000/svg" viewBox="0 0 200 200"><defs><style>.cls-1{fill:#8c3123;}.cls-2{fill:#e05243;}.cls-3{fill:#5e1f18;}.cls-4{fill:#f2b0a9;}</style></defs><title>s3</title><g id="Layer_1" data-name="Layer 1"><polygon class="cls-1" points="47.937 51.032 37.925 56.129 37.925 143.689 47.937 148.786 72.512 99.818 47.937 51.032"/><polygon class="cls-2" points="100 136.044 47.937 148.786 47.937 51.032 100 63.592 124.575 100 100 136.044"/><polygon class="cls-1" points="100 136.044 152.063 148.786 160.983 101.092 152.063 51.032 100 63.592 100 136.044"/><polygon class="cls-2" points="152.063 51.032 162.075 56.129 162.075 143.689 152.063 148.786 152.063 51.032"/><polygon class="cls-1" points="77.245 116.019 100 118.932 118.022 100 100 81.068 77.245 83.981 77.245 116.019"/><polygon class="cls-3" points="122.755 68.507 100 72.694 77.245 68.507 100 25 122.755 68.507"/><polygon class="cls-4" points="122.755 131.493 100 127.306 77.245 131.493 100 175 122.755 131.493"/><polygon class="cls-2" points="122.755 68.507 100 62.864 100 25 122.755 36.468 122.755 68.507"/><polygon class="cls-1" points="77.245 68.507 100 62.864 100 25 77.245 36.468 77.245 68.507"/><polygon class="cls-2" points="100 175 122.755 163.532 122.755 131.493 100 137.136 100 175"/><polygon class="cls-1" points="100 175 77.245 163.532 77.245 131.493 100 137.136 100 175"/><polygon class="cls-2" points="122.755 116.019 100 118.932 100 81.068 122.755 83.981 122.755 116.019"/></g></svg>