<svg id="svg2" xmlns="http://www.w3.org/2000/svg" viewBox="0 0 200 200"><defs><style>.cls-1{fill:#f89939;}.cls-2{fill:#3499cd;}.cls-3{fill:#010101;}</style></defs><title>sklearn</title><g id="g3"><path id="path5" class="cls-1" d="M146.72968,133.00878c21.37273-21.37148,24.92486-52.46856,7.93345-69.45872-16.98889-16.98827-48.08472-13.43676-69.4562,7.93346C63.83545,92.85437,70.01776,133.684,77.27473,140.94223,83.139,146.80651,125.35945,154.379,146.72968,133.00878Z"/><path id="path7" class="cls-2" d="M59.03387,102.12752c-12.3987-12.39871-30.4427-14.46284-40.30272-4.60346-9.8575,9.85813-7.79651,27.90465,4.60471,40.30145,12.40123,12.40248,36.09241,8.815,40.3002,4.60345C67.04115,139.02956,71.43635,114.52748,59.03387,102.12752Z"/></g><g id="g9"><g id="g11"><path id="path13" class="cls-3" d="M101.81405,127.77051a34.48005,34.48005,0,0,1-5.7633,4.4602,9.43965,9.43965,0,0,1-4.72524,1.43814,5.052,5.052,0,0,1-4.16929-2.00546,8.45976,8.45976,0,0,1-1.58265-5.391,42.2863,42.2863,0,0,1,2.19981-12.17973,77.33711,77.33711,0,0,1,5.3405-13.101l6.13939-2.273a1.53783,1.53783,0,0,1,.43606-.09718c.46571,0,.85064.34329,1.146,1.02671a7.06465,7.06465,0,0,1,.44867,2.769,21.3532,21.3532,0,0,1-2.273,9.547,43.11358,43.11358,0,0,1-7.10552,9.86129q-.194,2.51407-.19373,3.45621a6.2298,6.2298,0,0,0,.773,3.33506,2.33574,2.33574,0,0,0,2.05467,1.23243,5.20583,5.20583,0,0,0,2.78037-.94025,33.17753,33.17753,0,0,0,4.49365-3.91687v2.77845Zm-9.25611-9.44858a29.4921,29.4921,0,0,0,4.97955-7.64885,18.33275,18.33275,0,0,0,1.90763-7.2879,3.32182,3.32182,0,0,0-.26377-1.43752c-.17733-.36286-.40449-.54523-.67774-.54523q-.89071,0-2.598,4.45326A83.41076,83.41076,0,0,0,92.55794,118.32193Z"/><path id="path15" class="cls-3" d="M119.89465,127.77051a29.62912,29.62912,0,0,1-5.51025,4.4602,10.41707,10.41707,0,0,1-5.38971,1.43814,7.02857,7.02857,0,0,1-5.30706-2.10136,7.666,7.666,0,0,1-2.01618-5.53613,13.87529,13.87529,0,0,1,3.55465-9.26873q3.54961-4.1469,7.87793-4.14595a5.34855,5.34855,0,0,1,3.60135,1.16111,3.81769,3.81769,0,0,1,1.35358,3.0454q0,5.00446-10.6343,8.12086.96548,4.711,5.05085,4.71324a5.89762,5.89762,0,0,0,3.04415-.85632,26.48779,26.48779,0,0,0,4.37563-3.80834v2.77787Zm-12.665-4.47029q6.18579-1.74167,6.18736-6.429,0-2.32-1.69119-2.3197-1.59591,0-3.04415,2.42951A12.17933,12.17933,0,0,0,107.22965,123.30022Z"/><path id="path17" class="cls-3" d="M145.708,127.77051a51.2785,51.2785,0,0,1-5.53423,4.78835,5.79112,5.79112,0,0,1-3.19118,1.11064q-3.81938,0-3.60135-6.74331a25.03229,25.03229,0,0,1-4.4602,5.10135,6.66,6.66,0,0,1-4.21787,1.642,4.39341,4.39341,0,0,1-3.61272-1.99282,7.94762,7.94762,0,0,1-1.48547-4.89562,13.14071,13.14071,0,0,1,1.99157-6.913,16.40724,16.40724,0,0,1,5.11269-5.3159,10.49591,10.49591,0,0,1,5.51025-2.03132,4.27667,4.27667,0,0,1,4.23112,2.7791l4.93979-2.72988h1.35548l-2.13356,7.08092a30.72937,30.72937,0,0,0-1.64512,7.32449q0,2.07771,1.47411,2.078a3.29871,3.29871,0,0,0,2.07675-1.00335q1.13681-1.00431,3.18866-3.058v2.77845Zm-17.6925,1.33087q2.41658,0,4.558-4.12006a16.6884,16.6884,0,0,0,2.1386-7.60342,3.33054,3.33054,0,0,0-.60391-2.114,1.9607,1.9607,0,0,0-1.61926-.76167q-2.41846,0-4.5801,4.10934a16.44023,16.44023,0,0,0-2.16447,7.56366,3.31407,3.31407,0,0,0,.64113,2.11652A1.98625,1.98625,0,0,0,128.01552,129.10138Z"/><path id="path19" class="cls-3" d="M163.764,127.77051q-6.06747,5.94536-9.35456,5.94694a3.10188,3.10188,0,0,1-2.48946-1.24252,4.73109,4.73109,0,0,1-1.01535-3.08389q0-3.40763,3.65058-9.13558a13.47725,13.47725,0,0,1-3.9156,1.28038,27.77222,27.77222,0,0,1-4.931,6.23406H145.154v-2.17267a31.69712,31.69712,0,0,0,3.40762-4.20651,2.942,2.942,0,0,1-2.07929-2.72988,7.7848,7.7848,0,0,1,1.26965-3.97871,3.90207,3.90207,0,0,1,3.49282-2.11272,1.686,1.686,0,0,1,1.88428,1.93226,13.29578,13.29578,0,0,1-1.08855,4.351q4.01154-.43636,7.01024-6.1394l2.19855-.09718-2.24778,6.18736q-1.40092,3.91592-1.81172,5.3304a9.12984,9.12984,0,0,0-.41144,2.50082,2.563,2.563,0,0,0,.47076,1.61926,1.52053,1.52053,0,0,0,1.26965.60518,2.7724,2.7724,0,0,0,1.66785-.59066q.797-.59729,3.578-3.277v2.779Z"/><path id="path21" class="cls-3" d="M187.5,127.77051q-5.58283,5.90088-9.57163,5.899a3.29479,3.29479,0,0,1-2.61061-1.1365,4.45885,4.45885,0,0,1-.992-3.04415q0-2.586,2.12849-7.90254a14.28871,14.28871,0,0,0,1.1365-3.626c0-.51619-.20319-.77428-.60391-.77428a1.89965,1.89965,0,0,0-.89482.33761,10.99645,10.99645,0,0,0-1.18573.944q-.603.55468-1.35358,1.35105-.65408.68248-1.40028,1.54795l-1.35548,1.57256a4.98714,4.98714,0,0,0-1.11064,2.29509,36.56668,36.56668,0,0,0-.48464,3.773q-.07383,1.27786-.07256,3.45621l-5.34176,1.25451q-.26408-3.26279-.2663-4.85712a29.10483,29.10483,0,0,1,.90743-7.37183,47.68134,47.68134,0,0,1,2.91225-7.83248l5.89645-1.13525a56.2677,56.2677,0,0,0-2.44024,7.87793,46.54708,46.54708,0,0,1,6.29085-6.12679,7.314,7.314,0,0,1,4.13774-1.70191,2.62244,2.62244,0,0,1,2.05088.92827,3.38662,3.38662,0,0,1,.821,2.32791q0,2.31814-2.07675,7.63813a17.91536,17.91536,0,0,0-1.42741,4.73913q0,1.45485,1.187,1.45455,1.76724,0,5.71976-4.66529Z"/></g></g></svg>